<svg width="28" height="28" viewBox="0 0 28 28" fill="none" xmlns="http://www.w3.org/2000/svg">
<circle cx="14" cy="14" r="14" fill="#008CD3"/>
<path d="M13.9998 21.224C16.7198 21.224 18.3358 19.576 18.3358 17.64C18.3358 15.944 17.3918 15.016 15.9678 14.424L14.4158 13.784C13.4078 13.384 12.5598 13.064 12.5598 12.216C12.5598 11.448 13.2158 10.984 14.2558 10.984C15.2318 10.984 16.0158 11.336 16.7838 11.96L17.9678 10.472C17.0078 9.496 15.6318 8.952 14.2558 8.952C11.8718 8.952 10.1598 10.44 10.1598 12.376C10.1598 14.088 11.3758 15.064 12.5598 15.544L14.1438 16.216C15.1998 16.664 15.9198 16.952 15.9198 17.832C15.9198 18.648 15.2798 19.176 14.0478 19.176C13.0078 19.176 11.8718 18.664 11.0398 17.88L9.67981 19.512C10.8318 20.616 12.3998 21.224 13.9998 21.224Z" fill="white"/>
</svg>
